<svg xmlns="http://www.w3.org/2000/svg" width="36" height="36" viewBox="0 0 27 27"><path d="M13.5 8.016a5.545 5.545 0 00-5.54 5.539 5.544 5.544 0 005.54 5.535 5.544 5.544 0 005.54-5.535 5.545 5.545 0 00-5.54-5.54zm0 0a5.545 5.545 0 00-5.54 5.539 5.544 5.544 0 005.54 5.535 5.544 5.544 0 005.54-5.535 5.545 5.545 0 00-5.54-5.54zM23.047 0H3.953A3.958 3.958 0 000 3.953v19.094A3.958 3.958 0 003.953 27h19.094A3.958 3.958 0 0027 23.047V3.953A3.958 3.958 0 0023.047 0zM13.5 20.672c-3.922 0-7.117-3.195-7.117-7.117 0-3.926 3.195-7.121 7.117-7.121s7.117 3.195 7.117 7.12c0 3.923-3.195 7.118-7.117 7.118zm8.703-14.238a1.589 1.589 0 01-1.586-1.582c0-.872.715-1.582 1.586-1.582.867 0 1.578.71 1.578 1.582 0 .87-.71 1.582-1.578 1.582zM13.5 8.016a5.545 5.545 0 00-5.54 5.539 5.544 5.544 0 005.54 5.535 5.544 5.544 0 005.54-5.535 5.545 5.545 0 00-5.54-5.54zm0 0a5.545 5.545 0 00-5.54 5.539 5.544 5.544 0 005.54 5.535 5.544 5.544 0 005.54-5.535 5.545 5.545 0 00-5.54-5.54zm0 0a5.545 5.545 0 00-5.54 5.539 5.544 5.544 0 005.54 5.535 5.544 5.544 0 005.54-5.535 5.545 5.545 0 00-5.54-5.54zm0 0" id="surface1"/></svg>