<svg xmlns="http://www.w3.org/2000/svg" width="36" height="36" viewBox="0 0 27 27"><path d="M24.223 8c.02.242.02.48.02.719 0 7.316-5.567 15.746-15.747 15.746-3.133 0-6.047-.91-8.496-2.485.445.051.875.07 1.336.07a11.08 11.08 0 006.871-2.366 5.545 5.545 0 01-5.176-3.836c.344.05.688.086 1.047.086.496 0 .992-.07 1.457-.188a5.538 5.538 0 01-4.437-5.434v-.066c.734.41 1.593.668 2.5.703a5.533 5.533 0 01-2.47-4.61c0-1.027.278-1.972.755-2.792a15.738 15.738 0 0011.41 5.789 6.217 6.217 0 01-.137-1.266 5.533 5.533 0 015.535-5.535c1.594 0 3.032.668 4.043 1.746a10.8 10.8 0 003.512-1.336 5.51 5.51 0 01-2.433 3.051A11.209 11.209 0 0027 5.141 11.916 11.916 0 0124.223 8zm0 0" id="surface1"/></svg>