<?xml version="1.0" encoding="UTF-8"?>
<svg xmlns="http://www.w3.org/2000/svg" xmlns:xlink="http://www.w3.org/1999/xlink" width="27pt" height="27pt" viewBox="0 0 27 27" version="1.1">
<g id="surface1">
<path style=" stroke:none;fill-rule:nonzero;fill:rgb(0%,0%,0%);fill-opacity:1;" d="M 13.5 8.015625 C 10.445312 8.015625 7.960938 10.5 7.960938 13.554688 C 7.960938 16.605469 10.445312 19.089844 13.5 19.089844 C 16.554688 19.089844 19.039062 16.605469 19.039062 13.554688 C 19.039062 10.5 16.554688 8.015625 13.5 8.015625 Z M 13.5 8.015625 C 10.445312 8.015625 7.960938 10.5 7.960938 13.554688 C 7.960938 16.605469 10.445312 19.089844 13.5 19.089844 C 16.554688 19.089844 19.039062 16.605469 19.039062 13.554688 C 19.039062 10.5 16.554688 8.015625 13.5 8.015625 Z M 23.046875 0 L 3.953125 0 C 1.773438 0 0 1.773438 0 3.953125 L 0 23.046875 C 0 25.226562 1.773438 27 3.953125 27 L 23.046875 27 C 25.226562 27 27 25.226562 27 23.046875 L 27 3.953125 C 27 1.773438 25.226562 0 23.046875 0 Z M 13.5 20.671875 C 9.578125 20.671875 6.382812 17.476562 6.382812 13.554688 C 6.382812 9.628906 9.578125 6.433594 13.5 6.433594 C 17.421875 6.433594 20.617188 9.628906 20.617188 13.554688 C 20.617188 17.476562 17.421875 20.671875 13.5 20.671875 Z M 22.203125 6.433594 C 21.332031 6.433594 20.617188 5.722656 20.617188 4.851562 C 20.617188 3.980469 21.332031 3.269531 22.203125 3.269531 C 23.070312 3.269531 23.78125 3.980469 23.78125 4.851562 C 23.78125 5.722656 23.070312 6.433594 22.203125 6.433594 Z M 13.5 8.015625 C 10.445312 8.015625 7.960938 10.5 7.960938 13.554688 C 7.960938 16.605469 10.445312 19.089844 13.5 19.089844 C 16.554688 19.089844 19.039062 16.605469 19.039062 13.554688 C 19.039062 10.5 16.554688 8.015625 13.5 8.015625 Z M 13.5 8.015625 C 10.445312 8.015625 7.960938 10.5 7.960938 13.554688 C 7.960938 16.605469 10.445312 19.089844 13.5 19.089844 C 16.554688 19.089844 19.039062 16.605469 19.039062 13.554688 C 19.039062 10.5 16.554688 8.015625 13.5 8.015625 Z M 13.5 8.015625 C 10.445312 8.015625 7.960938 10.5 7.960938 13.554688 C 7.960938 16.605469 10.445312 19.089844 13.5 19.089844 C 16.554688 19.089844 19.039062 16.605469 19.039062 13.554688 C 19.039062 10.5 16.554688 8.015625 13.5 8.015625 Z M 13.5 8.015625 "/>
</g>
</svg>
