<?xml version="1.0" encoding="UTF-8"?>
<svg xmlns="http://www.w3.org/2000/svg" xmlns:xlink="http://www.w3.org/1999/xlink" width="27pt" height="27pt" viewBox="0 0 27 27" version="1.1">
<g id="surface1">
<path style=" stroke:none;fill-rule:nonzero;fill:rgb(0%,0%,0%);fill-opacity:1;" d="M 24.222656 8 C 24.242188 8.242188 24.242188 8.480469 24.242188 8.71875 C 24.242188 16.035156 18.675781 24.464844 8.496094 24.464844 C 5.363281 24.464844 2.449219 23.554688 0 21.980469 C 0.445312 22.03125 0.875 22.050781 1.335938 22.050781 C 3.921875 22.050781 6.304688 21.175781 8.207031 19.683594 C 5.773438 19.632812 3.734375 18.039062 3.03125 15.847656 C 3.375 15.898438 3.71875 15.933594 4.078125 15.933594 C 4.574219 15.933594 5.070312 15.863281 5.535156 15.746094 C 3 15.230469 1.097656 13.003906 1.097656 10.3125 L 1.097656 10.246094 C 1.832031 10.65625 2.691406 10.914062 3.597656 10.949219 C 2.105469 9.953125 1.128906 8.257812 1.128906 6.339844 C 1.128906 5.3125 1.40625 4.367188 1.882812 3.546875 C 4.609375 6.902344 8.703125 9.097656 13.292969 9.335938 C 13.207031 8.925781 13.15625 8.496094 13.15625 8.070312 C 13.15625 5.019531 15.625 2.535156 18.691406 2.535156 C 20.285156 2.535156 21.722656 3.203125 22.734375 4.28125 C 23.984375 4.042969 25.183594 3.582031 26.246094 2.945312 C 25.835938 4.230469 24.960938 5.3125 23.8125 5.996094 C 24.925781 5.875 26.007812 5.566406 27 5.140625 C 26.246094 6.234375 25.304688 7.210938 24.222656 8 Z M 24.222656 8 "/>
</g>
</svg>
